<?xml version="1.0" standalone="no"?>
<!DOCTYPE svg PUBLIC "-//W3C//DTD SVG 20010904//EN"
 "http://www.w3.org/TR/2001/REC-SVG-20010904/DTD/svg10.dtd">
<svg version="1.0" xmlns="http://www.w3.org/2000/svg"
 width="653.000000pt" height="653.000000pt" viewBox="0 0 653.000000 653.000000"
 preserveAspectRatio="xMidYMid meet">
<metadata>
Created by potrace 1.11, written by Peter Selinger 2001-2013
</metadata>
<g transform="translate(0.000000,653.000000) scale(0.100000,-0.100000)"
fill="#000000" stroke="none">
<path d="M3354 4832 c4 -7 -35 -11 -114 -11 -65 -1 -125 -3 -132 -6 -7 -2 -47
-7 -88 -9 -41 -3 -88 -8 -104 -11 -15 -3 -47 -7 -70 -9 -22 -2 -49 -7 -58 -11
-9 -4 -22 -4 -28 0 -5 3 -10 2 -10 -3 0 -7 -84 -29 -145 -37 -11 -1 -27 -5
-35 -8 -34 -12 -148 -48 -166 -51 -10 -2 -31 -9 -46 -15 -16 -6 -28 -7 -28 -3
0 4 -4 2 -8 -3 -9 -13 -252 -111 -270 -108 -7 0 -11 -2 -8 -5 9 -8 -75 -43
-87 -35 -5 3 -7 2 -4 -3 5 -10 -197 -119 -220 -119 -7 0 -18 -7 -25 -16 -22
-26 -137 -91 -150 -83 -6 4 -8 3 -5 -3 8 -12 -99 -80 -117 -75 -6 2 -8 0 -4
-4 7 -7 -125 -104 -142 -104 -5 0 -10 -3 -12 -8 -1 -4 -52 -45 -113 -91 -60
-47 -125 -97 -143 -113 -18 -16 -38 -25 -44 -22 -7 4 -8 2 -4 -4 7 -12 -50
-59 -66 -54 -5 1 -7 -2 -4 -6 7 -11 -95 -98 -109 -94 -5 2 -7 1 -3 -3 8 -8
-62 -71 -74 -67 -4 1 -7 -2 -6 -6 4 -12 -55 -72 -71 -72 -8 0 -12 -3 -8 -6 3
-3 -27 -38 -66 -78 -40 -40 -96 -99 -126 -131 -30 -33 -58 -59 -63 -57 -18 5
17 -44 68 -98 102 -107 114 -122 107 -133 -3 -5 -2 -7 4 -4 5 3 56 -39 114
-93 57 -55 108 -100 112 -100 5 0 5 -10 2 -22 -5 -18 -4 -20 4 -8 10 15 28 1
111 -80 8 -9 34 -31 58 -49 37 -29 41 -35 30 -50 -12 -14 -11 -15 5 -2 15 12
21 11 45 -10 15 -13 29 -27 32 -30 3 -3 56 -43 118 -88 61 -45 112 -87 112
-92 0 -5 3 -8 8 -7 15 4 52 -23 46 -34 -4 -7 -3 -8 4 -4 10 6 92 -42 112 -65
3 -3 12 -9 20 -12 8 -4 47 -27 85 -51 39 -24 97 -59 130 -76 33 -18 65 -38 70
-44 6 -7 14 -13 18 -13 22 -1 165 -78 160 -87 -3 -5 -1 -6 5 -2 11 6 82 -23
82 -34 0 -3 8 -6 18 -7 18 -1 244 -92 252 -102 3 -3 10 -6 15 -6 21 0 105 -28
105 -35 0 -4 10 -8 23 -8 18 0 242 -52 297 -70 8 -3 24 -6 35 -8 11 -1 34 -5
50 -9 17 -3 53 -8 80 -10 28 -3 66 -8 85 -11 54 -10 108 -13 188 -14 57 0 72
-2 66 -12 -6 -10 -5 -10 7 -1 8 6 39 12 69 12 67 0 191 11 202 17 4 3 8 -1 8
-8 0 -9 3 -9 8 -2 4 6 43 16 87 22 44 7 96 15 115 19 19 4 47 7 62 7 14 1 24
4 22 7 -7 12 70 19 83 7 11 -9 12 -7 6 7 -5 14 -3 17 9 13 9 -4 20 -2 25 3 6
6 26 11 46 12 19 1 33 5 31 8 -3 5 150 54 171 54 6 0 16 6 24 13 8 8 22 11 33
9 10 -3 16 -1 12 4 -3 5 0 9 6 9 15 0 183 72 293 126 50 24 95 40 100 37 6 -3
7 -1 3 5 -3 6 4 14 16 17 13 4 56 27 96 51 40 24 75 44 77 44 3 0 30 16 60 35
31 20 61 33 67 29 6 -4 8 -3 5 3 -3 5 22 27 56 49 34 21 110 74 170 117 59 42
113 74 119 71 6 -4 8 -3 5 3 -6 9 63 73 78 73 4 0 32 23 79 65 6 6 36 30 66
55 30 25 75 64 100 87 25 23 49 43 53 45 5 2 72 65 150 140 78 76 145 138 150
138 4 0 6 4 5 9 -2 4 25 38 60 75 34 36 62 71 62 76 0 9 -101 122 -145 164
-11 10 -19 22 -17 27 1 5 -5 9 -13 9 -14 0 -20 12 -16 33 1 5 -3 6 -9 2 -6 -3
-32 15 -58 42 -27 26 -91 86 -143 133 -52 47 -96 87 -99 90 -3 3 -45 39 -95
80 -49 41 -95 80 -102 85 -6 6 -30 23 -52 39 -23 17 -41 33 -41 38 0 4 -4 8
-10 8 -10 0 -171 118 -181 133 -3 5 -9 7 -12 5 -3 -1 -17 7 -31 19 -14 13 -26
20 -26 17 0 -3 -21 9 -47 28 -27 19 -122 77 -213 128 -91 52 -168 99 -171 103
-3 5 -9 8 -13 8 -20 -3 -26 0 -20 11 4 6 3 8 -4 4 -16 -10 -125 46 -109 57 8
5 4 6 -9 2 -13 -3 -50 8 -95 28 -41 19 -92 40 -114 47 -22 7 -44 16 -50 20 -5
4 -45 18 -87 31 -42 13 -74 27 -71 33 3 5 2 6 -4 3 -14 -9 -136 27 -126 36 4
5 1 5 -7 2 -9 -3 -78 8 -155 24 -147 31 -196 39 -257 43 -21 1 -38 5 -38 8 0
3 -16 4 -35 2 -19 -2 -42 1 -49 7 -10 9 -16 9 -21 1 -5 -8 -15 -6 -32 5 -14
10 -23 13 -19 7z m130 -462 c15 -5 39 -10 52 -10 17 0 23 -4 18 -12 -5 -8 -2
-9 10 -5 19 8 110 -26 99 -37 -4 -4 0 -4 9 -1 8 3 38 -5 64 -18 27 -14 68 -34
92 -46 23 -12 42 -25 42 -29 0 -4 12 -13 28 -19 27 -13 81 -57 154 -126 35
-33 38 -40 26 -55 -11 -15 -11 -15 2 -5 12 9 20 7 38 -12 23 -23 22 -52 0 -39
-7 4 -8 2 -4 -5 6 -9 11 -9 21 -1 9 8 18 2 37 -22 49 -67 134 -218 122 -218
-4 0 -1 -7 6 -15 9 -10 9 -15 1 -15 -6 0 -2 -9 8 -19 21 -21 45 -116 35 -133
-5 -7 -2 -8 6 -3 10 6 12 0 8 -23 -2 -17 -1 -29 4 -26 4 3 9 -7 9 -23 2 -40 6
-93 10 -128 2 -17 0 -35 -4 -42 -4 -6 -2 -15 4 -19 8 -4 7 -9 -2 -15 -11 -7
-11 -9 -1 -9 9 0 10 -5 2 -19 -5 -11 -7 -22 -2 -25 4 -2 6 -23 4 -45 -2 -23
-8 -38 -13 -35 -5 3 -6 -2 -3 -10 12 -31 -41 -230 -58 -220 -7 5 -8 2 -3 -5 4
-7 -5 -41 -20 -76 -20 -49 -31 -62 -43 -58 -13 4 -14 2 -4 -4 10 -8 6 -21 -19
-61 -17 -28 -36 -49 -40 -46 -5 3 -6 -2 -3 -10 4 -9 -1 -18 -10 -22 -9 -3 -16
-12 -16 -18 0 -16 -44 -58 -52 -50 -3 3 -9 0 -14 -7 -4 -8 -3 -10 4 -5 18 11
14 -1 -10 -29 -11 -13 -26 -22 -31 -18 -6 3 -7 1 -3 -5 8 -13 -50 -59 -68 -54
-6 2 -8 0 -4 -4 4 -4 3 -13 -3 -21 -14 -16 -33 -18 -23 -1 4 7 3 8 -5 4 -6 -4
-9 -11 -6 -16 6 -9 -102 -83 -121 -83 -7 0 -11 -4 -9 -8 7 -10 -25 -20 -37
-12 -6 3 -8 1 -5 -4 8 -13 -20 -26 -35 -16 -7 3 -8 1 -4 -5 4 -7 1 -12 -9 -12
-10 0 -13 5 -9 12 4 7 3 8 -5 4 -6 -4 -9 -11 -6 -16 6 -11 -126 -54 -225 -74
-54 -11 -119 -14 -230 -11 -85 2 -162 5 -170 7 -8 3 -31 8 -50 12 -49 10 -164
48 -170 55 -3 3 -12 7 -20 9 -36 7 -100 45 -93 54 3 6 1 8 -5 5 -15 -10 -43 3
-35 16 3 5 2 7 -4 4 -13 -8 -109 57 -105 72 1 7 -2 10 -7 7 -19 -12 -176 138
-164 157 3 6 1 7 -5 3 -13 -8 -35 28 -24 39 4 3 1 5 -6 3 -8 -1 -19 6 -25 17
-7 11 -16 23 -22 27 -7 5 -7 8 0 8 6 0 6 3 0 8 -6 4 -19 20 -28 35 -14 21 -16
32 -7 42 8 9 8 15 0 20 -6 4 -9 3 -8 -2 2 -4 -1 -9 -7 -11 -5 -2 -12 5 -14 15
-2 10 -6 20 -10 23 -14 10 -61 141 -55 152 4 6 3 8 -3 5 -6 -4 -13 5 -16 21
-2 15 -12 63 -21 107 -22 113 -24 318 -3 344 7 9 7 12 1 8 -8 -4 -8 8 -1 43 6
32 14 47 21 43 6 -4 6 -1 -1 9 -7 8 -10 17 -7 20 2 3 7 18 10 34 3 16 11 35
17 43 7 8 11 17 10 20 -5 14 19 81 27 76 6 -3 7 0 4 8 -8 23 101 211 117 201
5 -3 6 1 3 9 -3 9 4 22 18 31 12 9 19 16 14 16 -5 0 -1 9 9 20 10 11 22 17 27
14 4 -3 7 0 6 8 -2 7 3 12 10 10 8 -1 11 2 7 8 -6 9 64 80 131 133 22 17 28
18 36 6 8 -11 9 -11 5 3 -9 25 111 96 252 150 44 17 55 18 63 7 7 -11 8 -9 4
5 -5 15 -2 17 14 13 11 -3 18 -1 14 4 -3 5 7 9 23 10 15 0 37 4 48 8 12 5 26
4 34 -3 11 -8 13 -8 8 1 -5 8 4 13 30 16 71 7 339 -2 367 -13z m-1625 -449
c-8 -17 -17 -31 -21 -31 -5 0 -7 -3 -7 -7 4 -22 -2 -43 -10 -39 -5 4 -7 -4 -3
-16 4 -16 2 -19 -8 -13 -9 5 -11 4 -6 -3 4 -7 4 -18 -1 -24 -4 -7 -9 -22 -10
-33 -2 -10 -7 -22 -11 -25 -4 -3 -8 -16 -10 -30 -1 -14 -5 -32 -8 -40 -4 -8
-8 -24 -10 -35 -2 -11 -9 -58 -17 -105 -19 -116 -27 -364 -13 -420 3 -14 8
-45 11 -70 6 -57 33 -179 46 -205 5 -11 11 -34 12 -52 1 -17 5 -29 8 -28 9 6
31 -64 23 -76 -4 -7 -3 -9 4 -5 9 5 25 -22 27 -46 0 -3 3 -10 8 -14 18 -19 4
-23 -20 -7 -16 10 -40 25 -55 32 -15 8 -37 23 -48 33 -11 10 -20 15 -20 11 0
-4 -7 1 -16 12 -8 11 -18 20 -22 19 -13 -1 -102 59 -97 66 2 4 -2 7 -9 7 -27
0 -285 201 -476 372 -147 132 -138 112 -79 168 28 26 55 47 61 45 5 -1 7 1 4
6 -6 10 262 238 275 234 5 -1 9 3 9 9 0 5 5 7 12 3 6 -4 8 -3 5 3 -9 14 19 37
33 28 6 -4 9 -2 8 3 -5 14 60 64 73 56 7 -4 9 -3 6 3 -6 9 45 51 78 64 5 2 20
14 33 26 14 13 28 20 33 17 5 -3 9 -1 9 4 0 15 80 63 92 56 7 -4 8 -3 4 4 -8
13 30 36 44 27 6 -4 9 -3 8 2 -2 4 -1 8 2 8 3 0 16 10 30 22 30 29 36 23 19
-16z m2868 -1 c16 -6 21 -15 17 -27 -5 -14 -4 -15 4 -4 8 11 16 9 46 -11 20
-14 33 -28 28 -33 -4 -5 -1 -5 5 -1 8 4 32 -8 59 -28 26 -20 51 -36 56 -36 5
0 6 -5 3 -10 -4 -6 -2 -9 3 -8 13 4 30 -8 161 -106 148 -111 212 -167 204
-179 -3 -6 -1 -7 5 -3 12 7 41 -15 131 -101 30 -29 58 -53 62 -53 16 0 21 -23
8 -32 -10 -7 -8 -8 7 -3 37 10 35 -20 -3 -55 -28 -27 -37 -31 -45 -19 -8 11
-9 11 -4 -3 4 -12 -14 -34 -61 -75 -36 -32 -69 -57 -74 -56 -5 2 -8 0 -6 -5 1
-4 -2 -8 -7 -9 -5 0 -13 -8 -17 -16 -9 -16 -142 -127 -153 -127 -3 0 -15 -8
-25 -17 -87 -79 -288 -216 -304 -207 -6 4 -8 3 -4 -1 7 -8 -153 -119 -160
-111 -5 5 37 95 47 101 5 3 7 12 3 20 -3 8 0 15 7 15 6 0 8 5 5 10 -4 6 -2 16
3 23 5 7 15 38 22 70 7 31 16 57 19 57 3 0 7 10 8 23 1 12 4 33 6 47 6 33 17
111 26 181 4 31 7 86 6 122 0 38 3 63 9 60 5 -4 6 0 1 8 -13 20 -18 92 -6 85
5 -4 3 7 -6 24 -8 17 -13 40 -10 51 3 10 2 19 -2 19 -7 0 -13 44 -15 102 -1
14 -5 24 -9 21 -5 -3 -7 1 -6 8 3 16 -26 109 -65 213 -14 37 -23 73 -19 79 3
6 1 7 -5 3 -7 -4 -12 -5 -12 -2 0 2 -3 13 -7 23 -7 17 -6 17 17 0 14 -9 35
-22 47 -27z"/>
<path d="M3056 4352 c-2 -4 -1 -14 4 -22 7 -11 9 -9 7 8 -1 24 -3 26 -11 14z"/>
<path d="M3395 4349 c-3 -4 2 -6 10 -5 21 3 28 13 10 13 -9 0 -18 -4 -20 -8z"/>
<path d="M3116 4323 c-6 -14 -5 -15 5 -6 7 7 10 15 7 18 -3 3 -9 -2 -12 -12z"/>
<path d="M2813 4265 c0 -8 4 -12 9 -9 5 3 6 10 3 15 -9 13 -12 11 -12 -6z"/>
<path d="M3530 4256 c0 -2 7 -7 16 -10 8 -3 12 -2 9 4 -6 10 -25 14 -25 6z"/>
<path d="M3138 4235 c-2 -2 -19 -7 -38 -10 -78 -13 -187 -48 -252 -80 -37 -19
-68 -31 -68 -28 0 4 -6 -1 -13 -12 -9 -11 -19 -15 -27 -10 -8 5 -11 4 -7 -2 9
-14 -40 -46 -55 -37 -6 4 -8 3 -5 -3 4 -6 -13 -25 -36 -44 -23 -18 -55 -49
-72 -68 -16 -19 -37 -42 -45 -51 -22 -24 -87 -121 -101 -152 -6 -15 -15 -25
-19 -23 -4 3 -7 -1 -6 -8 0 -6 -14 -49 -31 -94 -18 -44 -38 -111 -45 -147 -7
-36 -15 -66 -18 -66 -3 0 -4 -39 -3 -87 2 -56 -2 -92 -10 -102 -8 -10 -8 -13
-1 -8 8 5 14 -15 20 -66 9 -82 7 -73 23 -111 6 -16 10 -31 7 -33 -2 -3 7 -29
20 -59 13 -31 21 -60 18 -66 -5 -7 -2 -8 6 -3 10 6 12 4 7 -9 -4 -9 -3 -14 2
-11 9 5 27 -34 22 -44 -2 -2 1 -7 6 -10 20 -15 53 -73 47 -83 -4 -6 -3 -8 3
-5 6 4 19 -6 28 -21 21 -32 33 -46 97 -108 26 -26 45 -50 43 -54 -3 -4 3 -7
13 -6 10 0 16 -6 16 -16 -1 -10 2 -15 7 -12 9 5 40 -9 61 -28 16 -16 182 -98
198 -98 6 0 8 -5 4 -12 -4 -6 -3 -8 4 -4 12 7 103 -14 97 -23 -5 -10 112 -16
260 -15 108 1 156 6 210 22 38 11 73 18 77 16 4 -3 8 0 8 5 0 6 6 11 13 11 6
0 51 20 99 44 48 24 90 41 94 37 4 -3 4 0 0 7 -4 6 -2 12 3 12 6 0 40 24 75
54 35 30 68 52 72 48 5 -4 6 -3 2 2 -9 10 91 122 104 118 5 -1 7 2 3 8 -3 5 7
29 24 53 35 51 91 165 91 184 0 8 4 12 9 9 5 -4 7 3 4 14 -4 15 0 20 13 20 13
0 15 3 7 8 -10 6 -9 19 3 57 8 28 18 82 21 120 3 39 11 73 17 77 6 5 7 8 1 8
-5 0 -11 32 -12 70 -3 76 -25 194 -48 261 -8 23 -12 45 -9 50 3 5 1 9 -5 9 -5
0 -14 15 -20 33 -6 17 -27 58 -46 90 -19 32 -32 63 -29 69 4 6 2 8 -3 5 -6 -4
-30 18 -53 49 -23 30 -55 67 -71 81 -15 14 -26 30 -22 36 3 6 2 7 -3 4 -5 -3
-37 16 -71 42 -50 39 -59 51 -50 62 10 11 9 11 -4 1 -12 -9 -29 -4 -87 26 -40
21 -70 41 -66 44 3 3 -1 6 -8 5 -34 -1 -49 4 -42 15 4 7 3 8 -4 4 -13 -8 -64
3 -58 13 3 4 -8 6 -22 5 -15 -1 -45 4 -67 11 -36 10 -298 19 -307 10z m162
-167 c0 -10 3 -9 9 1 5 7 13 11 18 8 5 -3 34 -9 64 -12 30 -4 56 -11 57 -16 2
-5 7 -7 11 -5 21 13 208 -63 193 -79 -4 -5 -2 -5 5 -1 30 17 213 -146 276
-246 44 -69 78 -139 72 -149 -3 -4 0 -9 5 -11 6 -2 12 -10 14 -18 1 -8 11 -41
20 -73 10 -32 15 -65 12 -73 -3 -7 -1 -14 4 -14 6 0 10 -46 10 -111 0 -105 -1
-111 -17 -98 -16 13 -17 12 -5 -3 15 -19 8 -98 -9 -98 -4 0 -6 -6 -4 -12 8
-19 -29 -111 -76 -194 -39 -68 -176 -231 -186 -221 -2 3 -17 -8 -33 -23 -38
-35 -210 -122 -248 -125 -16 -1 -33 -5 -39 -8 -29 -18 -252 -35 -275 -21 -6 4
-26 8 -43 10 -57 3 -95 15 -89 26 5 7 2 8 -6 3 -16 -10 -91 15 -83 28 3 6 1 7
-5 3 -13 -8 -51 10 -70 33 -8 9 -10 10 -7 3 6 -11 3 -12 -14 -2 -12 6 -18 16
-15 22 4 7 2 8 -5 4 -24 -15 -187 137 -247 231 -52 81 -95 183 -119 288 -21
88 -8 355 17 355 5 0 6 5 3 10 -13 22 92 250 115 250 6 0 9 3 8 8 -2 4 15 29
37 56 33 41 65 70 160 144 44 35 179 96 196 89 3 -1 12 3 20 10 19 15 144 38
232 42 24 0 37 -3 37 -11z"/>
<path d="M3195 3908 c-194 -31 -359 -129 -452 -269 -14 -21 -30 -36 -36 -32
-5 3 -7 1 -4 -5 10 -15 -3 -43 -16 -35 -5 3 -7 1 -4 -4 4 -6 -1 -28 -10 -49
-9 -22 -17 -41 -18 -44 -12 -50 -25 -126 -29 -167 -2 -29 -8 -58 -12 -64 -4
-8 -3 -9 4 -5 8 5 12 -7 13 -38 1 -25 2 -49 3 -53 1 -5 7 -26 14 -47 6 -22 8
-44 5 -49 -3 -6 -2 -7 4 -4 7 5 35 -51 36 -73 0 -3 7 -11 14 -19 8 -7 12 -20
9 -28 -3 -8 -2 -12 3 -9 12 8 34 -21 26 -34 -4 -6 -2 -9 3 -8 5 2 34 -22 63
-52 30 -31 71 -66 92 -79 20 -12 34 -27 31 -33 -4 -7 -2 -8 5 -4 6 4 22 1 35
-7 12 -8 41 -21 64 -28 23 -6 40 -15 38 -18 -2 -3 16 -7 41 -9 25 -1 50 -5 56
-9 16 -10 152 -5 222 8 62 11 196 68 227 96 10 9 18 13 18 10 0 -3 13 8 30 24
17 18 35 27 41 23 7 -4 9 -3 6 3 -4 6 4 21 16 34 63 66 121 170 151 269 35
116 28 272 -17 390 -12 30 -20 58 -19 63 1 4 -2 7 -8 7 -5 0 -10 5 -10 10 0
10 -75 118 -90 130 -3 3 -16 19 -29 35 -12 17 -26 30 -29 29 -14 -2 -61 40
-55 49 3 6 1 7 -5 3 -6 -4 -29 5 -51 19 -22 14 -61 30 -85 37 -25 6 -43 15
-41 18 2 3 -11 7 -28 8 -18 1 -63 5 -102 9 -38 5 -92 5 -120 1z m234 -190 c84
-32 157 -85 211 -157 77 -102 103 -186 97 -314 -5 -98 -39 -213 -59 -201 -7 4
-8 2 -4 -5 17 -27 -130 -180 -158 -164 -6 3 -8 3 -4 -2 9 -10 -47 -46 -73 -48
-11 -1 -19 -4 -19 -8 0 -13 -107 -28 -182 -25 -53 2 -85 8 -104 20 -14 10 -23
13 -20 7 5 -7 1 -9 -8 -5 -9 3 -16 10 -16 16 0 5 -5 6 -10 3 -24 -15 -198 125
-184 147 4 7 2 8 -4 4 -13 -8 -35 28 -24 39 4 5 1 5 -5 1 -12 -6 -15 0 -12 20
0 4 -3 10 -8 13 -14 10 -45 109 -38 121 3 5 1 10 -4 10 -14 0 -14 132 -1 185
20 76 78 179 132 233 56 57 186 129 212 119 9 -4 16 -2 16 3 0 26 188 18 269
-12z"/>
<path d="M3210 3564 c-63 -16 -120 -46 -154 -83 -16 -17 -34 -28 -39 -24 -6 3
-7 2 -4 -4 4 -6 -2 -27 -13 -48 -11 -22 -23 -55 -26 -74 -4 -20 -12 -39 -18
-43 -7 -5 -7 -8 0 -8 5 0 11 -19 13 -42 1 -22 8 -56 16 -75 8 -18 12 -33 9
-33 -3 0 9 -15 26 -32 16 -18 28 -38 26 -44 -3 -6 3 -11 12 -10 10 0 16 -5 14
-14 -2 -8 0 -12 3 -8 11 11 47 -11 39 -24 -4 -6 -3 -8 4 -4 6 3 23 1 39 -5 39
-15 73 -22 109 -22 50 1 140 31 173 59 17 14 31 22 31 18 0 -10 49 58 56 79 4
9 10 17 15 17 5 0 8 3 8 8 -1 4 0 9 1 12 4 11 10 47 12 77 2 18 7 33 11 33 5
0 5 6 0 13 -4 6 -9 23 -11 37 -5 44 -54 132 -90 164 -20 17 -41 36 -48 43 -6
7 -23 15 -38 19 -14 3 -24 10 -21 14 3 5 -3 6 -13 4 -9 -3 -35 -1 -57 3 -26 6
-56 5 -85 -3z"/>
<path d="M3513 3045 c0 -8 4 -12 9 -9 5 3 6 10 3 15 -9 13 -12 11 -12 -6z"/>
<path d="M2875 2699 c-4 -6 -5 -12 -2 -15 2 -3 7 2 10 11 7 17 1 20 -8 4z"/>
<path d="M2735 4210 c-3 -5 -1 -10 4 -10 6 0 11 5 11 10 0 6 -2 10 -4 10 -3 0
-8 -4 -11 -10z"/>
<path d="M3715 4191 c-3 -5 -2 -12 3 -15 5 -3 9 1 9 9 0 17 -3 19 -12 6z"/>
<path d="M2656 4148 c3 -4 11 -5 19 -1 21 7 19 12 -4 10 -11 0 -18 -5 -15 -9z"/>
<path d="M2590 4131 c0 -6 4 -13 10 -16 6 -3 7 1 4 9 -7 18 -14 21 -14 7z"/>
<path d="M2575 4090 c-3 -5 -1 -10 4 -10 6 0 11 5 11 10 0 6 -2 10 -4 10 -3 0
-8 -4 -11 -10z"/>
<path d="M4015 4081 c-3 -5 -2 -12 3 -15 5 -3 9 1 9 9 0 17 -3 19 -12 6z"/>
<path d="M2507 4049 c7 -7 15 -10 18 -7 3 3 -2 9 -12 12 -14 6 -15 5 -6 -5z"/>
<path d="M3953 4025 c0 -8 4 -12 9 -9 5 3 6 10 3 15 -9 13 -12 11 -12 -6z"/>
<path d="M2416 3952 c-2 -4 -1 -14 4 -22 7 -11 9 -9 7 8 -1 24 -3 26 -11 14z"/>
<path d="M4020 3930 c-9 -6 -10 -10 -3 -10 6 0 15 5 18 10 8 12 4 12 -15 0z"/>
<path d="M2420 3890 c-9 -6 -10 -10 -3 -10 6 0 15 5 18 10 8 12 4 12 -15 0z"/>
<path d="M4075 3850 c-3 -5 -1 -10 4 -10 6 0 11 5 11 10 0 6 -2 10 -4 10 -3 0
-8 -4 -11 -10z"/>
<path d="M4190 3829 c0 -5 5 -7 10 -4 6 3 10 8 10 11 0 2 -4 4 -10 4 -5 0 -10
-5 -10 -11z"/>
<path d="M2296 3788 c3 -5 10 -6 15 -3 13 9 11 12 -6 12 -8 0 -12 -4 -9 -9z"/>
<path d="M4195 3701 c-3 -5 -2 -12 3 -15 5 -3 9 1 9 9 0 17 -3 19 -12 6z"/>
<path d="M2233 3615 c0 -8 4 -12 9 -9 5 3 6 10 3 15 -9 13 -12 11 -12 -6z"/>
<path d="M2275 3599 c-4 -6 -5 -12 -2 -15 2 -3 7 2 10 11 7 17 1 20 -8 4z"/>
<path d="M2270 3551 c0 -6 4 -13 10 -16 6 -3 7 1 4 9 -7 18 -14 21 -14 7z"/>
<path d="M4276 3517 c3 -10 9 -15 12 -12 3 3 0 11 -7 18 -10 9 -11 8 -5 -6z"/>
<path d="M4276 3368 c3 -5 10 -6 15 -3 13 9 11 12 -6 12 -8 0 -12 -4 -9 -9z"/>
<path d="M4286 3252 c-3 -5 1 -9 9 -9 8 0 12 4 9 9 -3 4 -7 8 -9 8 -2 0 -6 -4
-9 -8z"/>
<path d="M2175 3210 c-3 -5 -1 -10 4 -10 6 0 11 5 11 10 0 6 -2 10 -4 10 -3 0
-8 -4 -11 -10z"/>
<path d="M4330 3176 c0 -2 7 -7 16 -10 8 -3 12 -2 9 4 -6 10 -25 14 -25 6z"/>
<path d="M2175 3130 c3 -5 8 -10 11 -10 2 0 4 5 4 10 0 6 -5 10 -11 10 -5 0
-7 -4 -4 -10z"/>
<path d="M2256 2968 c3 -5 10 -6 15 -3 13 9 11 12 -6 12 -8 0 -12 -4 -9 -9z"/>
<path d="M4260 2970 c-9 -6 -10 -10 -3 -10 6 0 15 5 18 10 8 12 4 12 -15 0z"/>
<path d="M2316 2848 c3 -5 10 -6 15 -3 13 9 11 12 -6 12 -8 0 -12 -4 -9 -9z"/>
<path d="M4213 2785 c0 -8 4 -12 9 -9 5 3 6 10 3 15 -9 13 -12 11 -12 -6z"/>
<path d="M2335 2711 c-3 -5 -2 -12 3 -15 5 -3 9 1 9 9 0 17 -3 19 -12 6z"/>
<path d="M4045 2570 c-3 -6 1 -7 9 -4 18 7 21 14 7 14 -6 0 -13 -4 -16 -10z"/>
<path d="M2550 2531 c0 -6 4 -13 10 -16 6 -3 7 1 4 9 -7 18 -14 21 -14 7z"/>
<path d="M4039 2523 c-13 -16 -12 -17 4 -4 9 7 17 15 17 17 0 8 -8 3 -21 -13z"/>
<path d="M2494 2506 c1 -8 5 -18 8 -22 4 -3 5 1 4 10 -1 8 -5 18 -8 22 -4 3
-5 -1 -4 -10z"/>
<path d="M4014 2486 c1 -8 5 -18 8 -22 4 -3 5 1 4 10 -1 8 -5 18 -8 22 -4 3
-5 -1 -4 -10z"/>
<path d="M2536 2468 c3 -5 10 -6 15 -3 13 9 11 12 -6 12 -8 0 -12 -4 -9 -9z"/>
<path d="M3950 2449 c0 -5 5 -7 10 -4 6 3 10 8 10 11 0 2 -4 4 -10 4 -5 0 -10
-5 -10 -11z"/>
<path d="M3836 2412 c-3 -5 1 -9 9 -9 8 0 12 4 9 9 -3 4 -7 8 -9 8 -2 0 -6 -4
-9 -8z"/>
<path d="M3756 2397 c3 -10 9 -15 12 -12 3 3 0 11 -7 18 -10 9 -11 8 -5 -6z"/>
<path d="M2633 2365 c0 -8 4 -12 9 -9 5 3 6 10 3 15 -9 13 -12 11 -12 -6z"/>
<path d="M3879 2363 c-13 -16 -12 -17 4 -4 16 13 21 21 13 21 -2 0 -10 -8 -17
-17z"/>
<path d="M3430 2291 c0 -6 4 -13 10 -16 6 -3 7 1 4 9 -7 18 -14 21 -14 7z"/>
<path d="M3695 2290 c3 -5 8 -10 11 -10 2 0 4 5 4 10 0 6 -5 10 -11 10 -5 0
-7 -4 -4 -10z"/>
<path d="M2813 2275 c0 -8 4 -12 9 -9 5 3 6 10 3 15 -9 13 -12 11 -12 -6z"/>
<path d="M3650 2249 c0 -5 5 -7 10 -4 6 3 10 8 10 11 0 2 -4 4 -10 4 -5 0 -10
-5 -10 -11z"/>
<path d="M2894 2232 c4 -3 14 -7 22 -8 9 -1 13 0 10 4 -4 3 -14 7 -22 8 -9 1
-13 0 -10 -4z"/>
<path d="M3550 2229 c0 -5 5 -7 10 -4 6 3 10 8 10 11 0 2 -4 4 -10 4 -5 0 -10
-5 -10 -11z"/>
<path d="M3595 2230 c3 -5 8 -10 11 -10 2 0 4 5 4 10 0 6 -5 10 -11 10 -5 0
-7 -4 -4 -10z"/>
<path d="M3115 2219 c-4 -6 -5 -12 -2 -15 2 -3 7 2 10 11 7 17 1 20 -8 4z"/>
<path d="M3455 2201 c-3 -5 -2 -12 3 -15 5 -3 9 1 9 9 0 17 -3 19 -12 6z"/>
<path d="M3053 2185 c0 -8 4 -12 9 -9 5 3 6 10 3 15 -9 13 -12 11 -12 -6z"/>
<path d="M3386 2168 c3 -5 10 -6 15 -3 13 9 11 12 -6 12 -8 0 -12 -4 -9 -9z"/>
<path d="M1714 3752 c4 -3 14 -7 22 -8 9 -1 13 0 10 4 -4 3 -14 7 -22 8 -9 1
-13 0 -10 -4z"/>
<path d="M1070 3290 c0 -5 5 -10 11 -10 5 0 7 5 4 10 -3 6 -8 10 -11 10 -2 0
-4 -4 -4 -10z"/>
<path d="M1733 2755 c0 -8 4 -12 9 -9 5 3 6 10 3 15 -9 13 -12 11 -12 -6z"/>
<path d="M4775 3830 c-3 -5 -1 -10 4 -10 6 0 11 5 11 10 0 6 -2 10 -4 10 -3 0
-8 -4 -11 -10z"/>
<path d="M4819 3798 c-5 -18 -6 -38 -1 -34 7 8 12 36 6 36 -2 0 -4 -1 -5 -2z"/>
<path d="M5235 3019 c-4 -6 -5 -12 -2 -15 2 -3 7 2 10 11 7 17 1 20 -8 4z"/>
<path d="M4774 2746 c1 -8 5 -18 8 -22 4 -3 5 1 4 10 -1 8 -5 18 -8 22 -4 3
-5 -1 -4 -10z"/>
<path d="M4835 2749 c-3 -4 2 -6 10 -5 21 3 28 13 10 13 -9 0 -18 -4 -20 -8z"/>
<path d="M3925 4770 c-3 -6 1 -7 9 -4 18 7 21 14 7 14 -6 0 -13 -4 -16 -10z"/>
<path d="M5596 3843 c-6 -14 -5 -15 5 -6 7 7 10 15 7 18 -3 3 -9 -2 -12 -12z"/>
<path d="M5870 3596 c0 -2 7 -7 16 -10 8 -3 12 -2 9 4 -6 10 -25 14 -25 6z"/>
<path d="M436 3057 c3 -10 9 -15 12 -12 3 3 0 11 -7 18 -10 9 -11 8 -5 -6z"/>
<path d="M5036 2257 c3 -10 9 -15 12 -12 3 3 0 11 -7 18 -10 9 -11 8 -5 -6z"/>
<path d="M4753 2085 c0 -8 4 -12 9 -9 5 3 6 10 3 15 -9 13 -12 11 -12 -6z"/>
<path d="M2346 1848 c3 -5 10 -6 15 -3 13 9 11 12 -6 12 -8 0 -12 -4 -9 -9z"/>
<path d="M3511 1683 c7 -12 15 -20 18 -17 3 2 -3 12 -13 22 -17 16 -18 16 -5
-5z"/>
</g>
</svg>
